<mxfile host="app.diagrams.net" modified="2023-11-15T17:41:29.996Z" agent="Mozilla/5.0 (Windows NT 10.0; Win64; x64) AppleWebKit/537.36 (KHTML, like Gecko) Chrome/119.0.0.0 Safari/537.36" etag="NMuiYk8Ijf6bGPz_dx1-" version="22.1.1" type="device">
  <diagram id="C5RBs43oDa-KdzZeNtuy" name="Page-1">
    <mxGraphModel dx="4582" dy="2589" grid="1" gridSize="10" guides="1" tooltips="1" connect="1" arrows="1" fold="1" page="1" pageScale="1" pageWidth="827" pageHeight="1169" background="#FFFFCC" math="0" shadow="0">
      <root>
        <mxCell id="WIyWlLk6GJQsqaUBKTNV-0" />
        <mxCell id="WIyWlLk6GJQsqaUBKTNV-1" parent="WIyWlLk6GJQsqaUBKTNV-0" />
        <mxCell id="Y6SLcv1Vtxi3gwNzsoC4-0" value="frame" style="shape=umlFrame;whiteSpace=wrap;html=1;pointerEvents=0;shadow=0;" parent="WIyWlLk6GJQsqaUBKTNV-1" vertex="1">
          <mxGeometry x="-520" y="-584" width="2470" height="1438" as="geometry" />
        </mxCell>
        <mxCell id="Y6SLcv1Vtxi3gwNzsoC4-19" value="&lt;p style=&quot;margin:0px;margin-top:4px;text-align:center;&quot;&gt;&lt;b&gt;&lt;i&gt;PaymentCompanies&lt;/i&gt;&lt;/b&gt;&lt;/p&gt;&lt;hr size=&quot;1&quot;&gt;&lt;p style=&quot;margin:0px;margin-left:4px;&quot;&gt;&lt;br&gt;&lt;/p&gt;&lt;hr size=&quot;1&quot;&gt;&lt;p style=&quot;margin:0px;margin-left:4px;&quot;&gt;&lt;br&gt;&lt;/p&gt;" style="verticalAlign=top;align=left;overflow=fill;fontSize=12;fontFamily=Helvetica;html=1;whiteSpace=wrap;shadow=0;gradientDirection=north;backgroundOutline=0;gradientColor=#99F1FF;" parent="WIyWlLk6GJQsqaUBKTNV-1" vertex="1">
          <mxGeometry x="221" y="450" width="190" height="140" as="geometry" />
        </mxCell>
        <mxCell id="Y6SLcv1Vtxi3gwNzsoC4-21" value="&lt;p style=&quot;margin:0px;margin-top:4px;text-align:center;&quot;&gt;&lt;b style=&quot;background-color: initial;&quot;&gt;&lt;i&gt;Bills&lt;/i&gt;&lt;/b&gt;&lt;br&gt;&lt;/p&gt;&lt;hr size=&quot;1&quot;&gt;&lt;p style=&quot;margin:0px;margin-left:4px;&quot;&gt;- bill_id: Integer&lt;br&gt;- Amount: Float&lt;/p&gt;&lt;p style=&quot;margin:0px;margin-left:4px;&quot;&gt;- address : String&lt;/p&gt;&lt;p style=&quot;margin:0px;margin-left:4px;&quot;&gt;- Number : String&lt;/p&gt;&lt;p style=&quot;margin:0px;margin-left:4px;&quot;&gt;-Name : String&amp;nbsp;&lt;/p&gt;&lt;hr size=&quot;1&quot;&gt;&lt;p style=&quot;margin:0px;margin-left:4px;&quot;&gt;+ paid(): Boolean&lt;br&gt;&lt;/p&gt;&lt;p style=&quot;margin:0px;margin-left:4px;&quot;&gt;+print ():Void&lt;/p&gt;" style="verticalAlign=top;align=left;overflow=fill;fontSize=12;fontFamily=Helvetica;html=1;whiteSpace=wrap;shadow=0;gradientDirection=north;backgroundOutline=0;gradientColor=#99F1FF;" parent="WIyWlLk6GJQsqaUBKTNV-1" vertex="1">
          <mxGeometry x="645" y="-410" width="190" height="158" as="geometry" />
        </mxCell>
        <mxCell id="Y6SLcv1Vtxi3gwNzsoC4-23" value="&lt;p style=&quot;margin:0px;margin-top:4px;text-align:center;&quot;&gt;&lt;b&gt;Database&lt;/b&gt;&lt;/p&gt;&lt;hr size=&quot;1&quot;&gt;&lt;p style=&quot;margin:0px;margin-left:4px;&quot;&gt;- numbers[] : String&lt;/p&gt;&lt;p style=&quot;border-color: var(--border-color); margin: 0px 0px 0px 4px;&quot;&gt;- Bills[] : Bills&lt;/p&gt;&lt;p style=&quot;border-color: var(--border-color); margin: 0px 0px 0px 4px;&quot;&gt;- Banks[] : BanksAPI&lt;/p&gt;&lt;p style=&quot;border-color: var(--border-color); margin: 0px 0px 0px 4px;&quot;&gt;- Wallets[] : WalletAPI&lt;/p&gt;&lt;p style=&quot;border-color: var(--border-color); margin: 0px 0px 0px 4px;&quot;&gt;&lt;br style=&quot;border-color: var(--border-color);&quot;&gt;&lt;/p&gt;&lt;hr size=&quot;1&quot;&gt;&lt;p style=&quot;margin:0px;margin-left:4px;&quot;&gt;+ check_number(number : String):&amp;nbsp; Boolean&lt;/p&gt;&lt;p style=&quot;margin:0px;margin-left:4px;&quot;&gt;+updateInstapayAccounts(InstapayAccount account):void&lt;/p&gt;&lt;p style=&quot;margin:0px;margin-left:4px;&quot;&gt;+verifyUserName(String userName):boolean&lt;/p&gt;&lt;p style=&quot;margin:0px;margin-left:4px;&quot;&gt;+getBank(int id):BankAPI&lt;/p&gt;&lt;p style=&quot;margin:0px;margin-left:4px;&quot;&gt;+getWallets(int id)WalletAPI&lt;/p&gt;&lt;p style=&quot;margin:0px;margin-left:4px;&quot;&gt;&lt;span style=&quot;background-color: initial;&quot;&gt;+&amp;nbsp;getInstaPayAccountByMobNumber(String mobileNumber):InstapayAcount&lt;/span&gt;&lt;/p&gt;&lt;p style=&quot;border-color: var(--border-color); margin: 0px 0px 0px 4px;&quot;&gt;+ getInstaPayAccountByUserName(String mobileNumber):InstapayAcount&lt;/p&gt;&lt;p style=&quot;border-color: var(--border-color); margin: 0px 0px 0px 4px;&quot;&gt;+displayApis(int id):void&lt;/p&gt;&lt;p style=&quot;border-color: var(--border-color); margin: 0px 0px 0px 4px;&quot;&gt;+selectBank(int id) : BankAPI&lt;/p&gt;&lt;p style=&quot;border-color: var(--border-color); margin: 0px 0px 0px 4px;&quot;&gt;+ selectWallet(int id) :WalletAPi&amp;nbsp;&lt;/p&gt;&lt;p style=&quot;border-color: var(--border-color); margin: 0px 0px 0px 4px;&quot;&gt;&lt;span style=&quot;background-color: initial;&quot;&gt;+verifyInstaMobileNumber(String mobileNumber, String type):Boolean&lt;/span&gt;&lt;/p&gt;&lt;p style=&quot;border-color: var(--border-color); margin: 0px 0px 0px 4px;&quot;&gt;+getAccountWithNumber(String mobileNumber):WalletAcount&lt;/p&gt;&lt;p style=&quot;border-color: var(--border-color); margin: 0px 0px 0px 4px;&quot;&gt;+updateWalletAccount(WalletAccount acc):void&lt;/p&gt;&lt;p style=&quot;border-color: var(--border-color); margin: 0px 0px 0px 4px;&quot;&gt;+searchBankAccount(String mobileNuber):Boolean&lt;/p&gt;&lt;p style=&quot;border-color: var(--border-color); margin: 0px 0px 0px 4px;&quot;&gt;+updateBankAccount(BankAccount acc):void&lt;/p&gt;&lt;p style=&quot;border-color: var(--border-color); margin: 0px 0px 0px 4px;&quot;&gt;+getBankAccount(String mobileNumber):BankAcount&lt;/p&gt;&lt;p style=&quot;border-color: var(--border-color); margin: 0px 0px 0px 4px;&quot;&gt;+updateBills(int id):void&lt;/p&gt;" style="verticalAlign=top;align=left;overflow=fill;fontSize=12;fontFamily=Helvetica;html=1;whiteSpace=wrap;shadow=0;gradientDirection=north;backgroundOutline=0;gradientColor=#99F1FF;" parent="WIyWlLk6GJQsqaUBKTNV-1" vertex="1">
          <mxGeometry x="-100" y="-440" width="420" height="360" as="geometry" />
        </mxCell>
        <mxCell id="Y6SLcv1Vtxi3gwNzsoC4-34" value="&lt;p style=&quot;margin:0px;margin-top:4px;text-align:center;&quot;&gt;&lt;b&gt;BankAccount&lt;/b&gt;&lt;/p&gt;&lt;hr size=&quot;1&quot;&gt;&lt;p style=&quot;margin:0px;margin-left:4px;&quot;&gt;-Bank : BanckAPI&lt;/p&gt;&lt;p style=&quot;margin:0px;margin-left:4px;&quot;&gt;&lt;br&gt;&lt;/p&gt;" style="verticalAlign=top;align=left;overflow=fill;fontSize=12;fontFamily=Helvetica;html=1;whiteSpace=wrap;shadow=0;gradientDirection=north;backgroundOutline=0;gradientColor=#99F1FF;" parent="WIyWlLk6GJQsqaUBKTNV-1" vertex="1">
          <mxGeometry x="1241" y="643.5" width="240" height="80" as="geometry" />
        </mxCell>
        <mxCell id="Y6SLcv1Vtxi3gwNzsoC4-36" value="&lt;p style=&quot;margin:0px;margin-top:4px;text-align:center;&quot;&gt;&lt;b&gt;&lt;i&gt;InstapayAccount&lt;/i&gt;&lt;/b&gt;&lt;/p&gt;&lt;hr size=&quot;1&quot;&gt;&lt;p style=&quot;margin:0px;margin-left:4px;&quot;&gt;- user_name: String&lt;/p&gt;&lt;p style=&quot;margin:0px;margin-left:4px;&quot;&gt;&lt;span style=&quot;background-color: initial;&quot;&gt;- password: String&lt;/span&gt;&lt;br&gt;&lt;/p&gt;&lt;p style=&quot;margin:0px;margin-left:4px;&quot;&gt;- number: String&lt;/p&gt;&lt;p style=&quot;margin:0px;margin-left:4px;&quot;&gt;- balance : Float&lt;/p&gt;&lt;p style=&quot;margin:0px;margin-left:4px;&quot;&gt;-account_type: AcountType&lt;/p&gt;&lt;p style=&quot;margin:0px;margin-left:4px;&quot;&gt;-type :String&lt;/p&gt;&lt;p style=&quot;margin:0px;margin-left:4px;&quot;&gt;-bills []: Bills&lt;/p&gt;&lt;hr size=&quot;1&quot;&gt;&lt;p style=&quot;margin:0px;margin-left:4px;&quot;&gt;+ set_user_name(name : String): void&lt;br&gt;+ set_number(number : String) : String&lt;/p&gt;&lt;p style=&quot;margin:0px;margin-left:4px;&quot;&gt;+ get_user_name() : String&lt;/p&gt;&lt;p style=&quot;margin:0px;margin-left:4px;&quot;&gt;+ get_number() : Integer&lt;/p&gt;&lt;p style=&quot;margin:0px;margin-left:4px;&quot;&gt;+ register () :void&lt;/p&gt;&lt;p style=&quot;margin:0px;margin-left:4px;&quot;&gt;+ sign_in () :void&lt;/p&gt;&lt;p style=&quot;margin:0px;margin-left:4px;&quot;&gt;+ update_balance(balance: double): void&lt;/p&gt;&lt;p style=&quot;margin:0px;margin-left:4px;&quot;&gt;+&amp;nbsp; transfer () :void&lt;/p&gt;&lt;p style=&quot;border-color: var(--border-color); margin: 0px 0px 0px 4px;&quot;&gt;+&amp;nbsp; transferToInstapayAcc(String mobileNumber, String userName):void&lt;/p&gt;&lt;p style=&quot;margin:0px;margin-left:4px;&quot;&gt;+&amp;nbsp; inquire _blance() : void&lt;/p&gt;&lt;p style=&quot;margin:0px;margin-left:4px;&quot;&gt;+ pay_bills(bill: Bill): void&lt;/p&gt;" style="verticalAlign=top;align=left;overflow=fill;fontSize=12;fontFamily=Helvetica;html=1;whiteSpace=wrap;shadow=0;gradientDirection=north;backgroundOutline=0;fillColor=#dae8fc;strokeColor=#6c8ebf;" parent="WIyWlLk6GJQsqaUBKTNV-1" vertex="1">
          <mxGeometry x="1220" y="-109" width="430" height="339" as="geometry" />
        </mxCell>
        <mxCell id="Y6SLcv1Vtxi3gwNzsoC4-39" value="&lt;p style=&quot;margin:0px;margin-top:4px;text-align:center;&quot;&gt;&lt;br&gt;&lt;b&gt;WalletAccount&lt;/b&gt;&lt;/p&gt;&lt;hr size=&quot;1&quot;&gt;&lt;p style=&quot;margin:0px;margin-left:4px;&quot;&gt;- provider : WalletAPI&lt;/p&gt;&lt;p style=&quot;margin:0px;margin-left:4px;&quot;&gt;&lt;br&gt;&lt;/p&gt;&lt;hr size=&quot;1&quot;&gt;&lt;p style=&quot;margin:0px;margin-left:4px;&quot;&gt;&lt;br&gt;&lt;/p&gt;" style="verticalAlign=top;align=left;overflow=fill;fontSize=12;fontFamily=Helvetica;html=1;whiteSpace=wrap;shadow=0;gradientDirection=north;backgroundOutline=0;gradientColor=#99F1FF;" parent="WIyWlLk6GJQsqaUBKTNV-1" vertex="1">
          <mxGeometry x="1511" y="637" width="190" height="86.5" as="geometry" />
        </mxCell>
        <mxCell id="4EZs6NRq4k3DMp0Py4xL-0" value="" style="endArrow=block;endSize=16;endFill=0;html=1;rounded=0;exitX=0.466;exitY=-0.035;exitDx=0;exitDy=0;exitPerimeter=0;shadow=0;" parent="WIyWlLk6GJQsqaUBKTNV-1" source="Y6SLcv1Vtxi3gwNzsoC4-34" edge="1" target="Or9qenofxPlAhCNmHcEj-10">
          <mxGeometry width="160" relative="1" as="geometry">
            <mxPoint x="1341" y="633.5" as="sourcePoint" />
            <mxPoint x="1452" y="515" as="targetPoint" />
            <Array as="points">
              <mxPoint x="1353" y="583.5" />
              <mxPoint x="1461" y="583.5" />
            </Array>
          </mxGeometry>
        </mxCell>
        <mxCell id="4EZs6NRq4k3DMp0Py4xL-2" value="" style="endArrow=block;endSize=16;endFill=0;html=1;rounded=0;exitX=0.5;exitY=0;exitDx=0;exitDy=0;shadow=0;entryX=0.75;entryY=1;entryDx=0;entryDy=0;" parent="WIyWlLk6GJQsqaUBKTNV-1" target="Or9qenofxPlAhCNmHcEj-0" edge="1">
          <mxGeometry width="160" relative="1" as="geometry">
            <mxPoint x="-39.999999999999545" y="490" as="sourcePoint" />
            <mxPoint x="290" y="290" as="targetPoint" />
            <Array as="points">
              <mxPoint x="-40" y="440" />
              <mxPoint x="-40" y="400" />
              <mxPoint x="118" y="400" />
            </Array>
          </mxGeometry>
        </mxCell>
        <mxCell id="4EZs6NRq4k3DMp0Py4xL-6" value="" style="endArrow=none;html=1;rounded=0;shadow=0;" parent="WIyWlLk6GJQsqaUBKTNV-1" edge="1">
          <mxGeometry width="50" height="50" relative="1" as="geometry">
            <mxPoint x="310" y="450" as="sourcePoint" />
            <mxPoint x="120" y="400" as="targetPoint" />
            <Array as="points">
              <mxPoint x="310" y="400" />
            </Array>
          </mxGeometry>
        </mxCell>
        <mxCell id="4EZs6NRq4k3DMp0Py4xL-8" value="" style="endArrow=none;html=1;rounded=0;entryX=0.5;entryY=0;entryDx=0;entryDy=0;shadow=0;" parent="WIyWlLk6GJQsqaUBKTNV-1" target="Y6SLcv1Vtxi3gwNzsoC4-39" edge="1">
          <mxGeometry width="50" height="50" relative="1" as="geometry">
            <mxPoint x="1451" y="583.5" as="sourcePoint" />
            <mxPoint x="1591" y="558.5" as="targetPoint" />
            <Array as="points">
              <mxPoint x="1606" y="583.5" />
            </Array>
          </mxGeometry>
        </mxCell>
        <mxCell id="4EZs6NRq4k3DMp0Py4xL-9" value="&lt;p style=&quot;margin:0px;margin-top:4px;text-align:center;&quot;&gt;&lt;b&gt;&lt;i&gt;TelecomCompanies&lt;/i&gt;&lt;/b&gt;&lt;/p&gt;&lt;hr size=&quot;1&quot;&gt;&lt;p style=&quot;margin:0px;margin-left:4px;&quot;&gt;&lt;br&gt;&lt;/p&gt;&lt;hr size=&quot;1&quot;&gt;&lt;p style=&quot;margin:0px;margin-left:4px;&quot;&gt;&lt;br&gt;&lt;/p&gt;" style="verticalAlign=top;align=left;overflow=fill;fontSize=12;fontFamily=Helvetica;html=1;whiteSpace=wrap;shadow=0;gradientDirection=north;backgroundOutline=0;gradientColor=#99F1FF;" parent="WIyWlLk6GJQsqaUBKTNV-1" vertex="1">
          <mxGeometry x="-180" y="450" width="190" height="140" as="geometry" />
        </mxCell>
        <mxCell id="4EZs6NRq4k3DMp0Py4xL-10" value="VodafoneCash" style="swimlane;fontStyle=1;align=center;verticalAlign=top;childLayout=stackLayout;horizontal=1;startSize=26;horizontalStack=0;resizeParent=1;resizeParentMax=0;resizeLast=0;collapsible=1;marginBottom=0;whiteSpace=wrap;html=1;shadow=0;fillColor=#dae8fc;strokeColor=#6c8ebf;" parent="WIyWlLk6GJQsqaUBKTNV-1" vertex="1">
          <mxGeometry x="-320" y="660" width="160" height="34" as="geometry" />
        </mxCell>
        <mxCell id="4EZs6NRq4k3DMp0Py4xL-12" value="" style="line;strokeWidth=1;align=left;verticalAlign=middle;spacingTop=-1;spacingLeft=3;spacingRight=3;rotatable=0;labelPosition=right;points=[];portConstraint=eastwest;shadow=0;" parent="4EZs6NRq4k3DMp0Py4xL-10" vertex="1">
          <mxGeometry y="26" width="160" height="8" as="geometry" />
        </mxCell>
        <mxCell id="4EZs6NRq4k3DMp0Py4xL-14" value="WePay" style="swimlane;fontStyle=1;align=center;verticalAlign=top;childLayout=stackLayout;horizontal=1;startSize=26;horizontalStack=0;resizeParent=1;resizeParentMax=0;resizeLast=0;collapsible=1;marginBottom=0;whiteSpace=wrap;html=1;shadow=0;fillColor=#dae8fc;strokeColor=#6c8ebf;" parent="WIyWlLk6GJQsqaUBKTNV-1" vertex="1">
          <mxGeometry x="-60" y="660" width="160" height="34" as="geometry" />
        </mxCell>
        <mxCell id="4EZs6NRq4k3DMp0Py4xL-16" value="" style="line;strokeWidth=1;align=left;verticalAlign=middle;spacingTop=-1;spacingLeft=3;spacingRight=3;rotatable=0;labelPosition=right;points=[];portConstraint=eastwest;shadow=0;" parent="4EZs6NRq4k3DMp0Py4xL-14" vertex="1">
          <mxGeometry y="26" width="160" height="8" as="geometry" />
        </mxCell>
        <mxCell id="4EZs6NRq4k3DMp0Py4xL-18" value="Fawry" style="swimlane;fontStyle=1;align=center;verticalAlign=top;childLayout=stackLayout;horizontal=1;startSize=26;horizontalStack=0;resizeParent=1;resizeParentMax=0;resizeLast=0;collapsible=1;marginBottom=0;whiteSpace=wrap;html=1;shadow=0;fillColor=#dae8fc;strokeColor=#6c8ebf;" parent="WIyWlLk6GJQsqaUBKTNV-1" vertex="1">
          <mxGeometry x="124" y="674" width="160" height="34" as="geometry" />
        </mxCell>
        <mxCell id="4EZs6NRq4k3DMp0Py4xL-20" value="" style="line;strokeWidth=1;align=left;verticalAlign=middle;spacingTop=-1;spacingLeft=3;spacingRight=3;rotatable=0;labelPosition=right;points=[];portConstraint=eastwest;shadow=0;" parent="4EZs6NRq4k3DMp0Py4xL-18" vertex="1">
          <mxGeometry y="26" width="160" height="8" as="geometry" />
        </mxCell>
        <mxCell id="4EZs6NRq4k3DMp0Py4xL-22" value="Massari" style="swimlane;fontStyle=1;align=center;verticalAlign=top;childLayout=stackLayout;horizontal=1;startSize=26;horizontalStack=0;resizeParent=1;resizeParentMax=0;resizeLast=0;collapsible=1;marginBottom=0;whiteSpace=wrap;html=1;shadow=0;fillColor=#dae8fc;strokeColor=#6c8ebf;" parent="WIyWlLk6GJQsqaUBKTNV-1" vertex="1">
          <mxGeometry x="320" y="674" width="160" height="34" as="geometry" />
        </mxCell>
        <mxCell id="4EZs6NRq4k3DMp0Py4xL-24" value="" style="line;strokeWidth=1;align=left;verticalAlign=middle;spacingTop=-1;spacingLeft=3;spacingRight=3;rotatable=0;labelPosition=right;points=[];portConstraint=eastwest;shadow=0;" parent="4EZs6NRq4k3DMp0Py4xL-22" vertex="1">
          <mxGeometry y="26" width="160" height="8" as="geometry" />
        </mxCell>
        <mxCell id="4EZs6NRq4k3DMp0Py4xL-41" value="" style="endArrow=block;endSize=16;endFill=0;html=1;rounded=0;entryX=0.5;entryY=1;entryDx=0;entryDy=0;exitX=0.5;exitY=0;exitDx=0;exitDy=0;shadow=0;" parent="WIyWlLk6GJQsqaUBKTNV-1" target="4EZs6NRq4k3DMp0Py4xL-9" edge="1">
          <mxGeometry width="160" relative="1" as="geometry">
            <mxPoint x="-240" y="660" as="sourcePoint" />
            <mxPoint x="-100" y="610" as="targetPoint" />
            <Array as="points">
              <mxPoint x="-240" y="620" />
              <mxPoint x="-190" y="620" />
              <mxPoint x="-85" y="620" />
            </Array>
          </mxGeometry>
        </mxCell>
        <mxCell id="4EZs6NRq4k3DMp0Py4xL-42" value="" style="endArrow=none;html=1;rounded=0;exitX=0.5;exitY=0;exitDx=0;exitDy=0;shadow=0;" parent="WIyWlLk6GJQsqaUBKTNV-1" source="4EZs6NRq4k3DMp0Py4xL-14" edge="1">
          <mxGeometry width="50" height="50" relative="1" as="geometry">
            <mxPoint x="-80" y="650" as="sourcePoint" />
            <mxPoint x="-85" y="620" as="targetPoint" />
            <Array as="points">
              <mxPoint x="20" y="620" />
            </Array>
          </mxGeometry>
        </mxCell>
        <mxCell id="4EZs6NRq4k3DMp0Py4xL-47" value="" style="endArrow=block;endSize=16;endFill=0;html=1;rounded=0;entryX=0.5;entryY=1;entryDx=0;entryDy=0;exitX=0.5;exitY=0;exitDx=0;exitDy=0;shadow=0;" parent="WIyWlLk6GJQsqaUBKTNV-1" source="4EZs6NRq4k3DMp0Py4xL-18" target="Y6SLcv1Vtxi3gwNzsoC4-19" edge="1">
          <mxGeometry width="160" relative="1" as="geometry">
            <mxPoint x="154" y="660" as="sourcePoint" />
            <mxPoint x="259" y="590" as="targetPoint" />
            <Array as="points">
              <mxPoint x="204" y="620" />
              <mxPoint x="316" y="620" />
            </Array>
          </mxGeometry>
        </mxCell>
        <mxCell id="4EZs6NRq4k3DMp0Py4xL-48" value="" style="endArrow=none;html=1;rounded=0;entryX=0.535;entryY=0.007;entryDx=0;entryDy=0;entryPerimeter=0;shadow=0;" parent="WIyWlLk6GJQsqaUBKTNV-1" target="4EZs6NRq4k3DMp0Py4xL-22" edge="1">
          <mxGeometry width="50" height="50" relative="1" as="geometry">
            <mxPoint x="314" y="620" as="sourcePoint" />
            <mxPoint x="324" y="600" as="targetPoint" />
            <Array as="points">
              <mxPoint x="406" y="620" />
            </Array>
          </mxGeometry>
        </mxCell>
        <mxCell id="4EZs6NRq4k3DMp0Py4xL-52" value="" style="endArrow=none;html=1;rounded=0;exitX=0.003;exitY=0.333;exitDx=0;exitDy=0;shadow=0;exitPerimeter=0;" parent="WIyWlLk6GJQsqaUBKTNV-1" source="Y6SLcv1Vtxi3gwNzsoC4-36" edge="1">
          <mxGeometry width="50" height="50" relative="1" as="geometry">
            <mxPoint x="1450" y="150" as="sourcePoint" />
            <mxPoint x="280" y="-80" as="targetPoint" />
            <Array as="points">
              <mxPoint x="930" y="4" />
              <mxPoint x="380" />
              <mxPoint x="280" y="4" />
            </Array>
          </mxGeometry>
        </mxCell>
        <mxCell id="4EZs6NRq4k3DMp0Py4xL-54" value="WaterBill" style="swimlane;fontStyle=1;align=center;verticalAlign=top;childLayout=stackLayout;horizontal=1;startSize=26;horizontalStack=0;resizeParent=1;resizeParentMax=0;resizeLast=0;collapsible=1;marginBottom=0;whiteSpace=wrap;html=1;shadow=0;fillColor=#dae8fc;strokeColor=#6c8ebf;" parent="WIyWlLk6GJQsqaUBKTNV-1" vertex="1">
          <mxGeometry x="450" y="-168" width="160" height="34" as="geometry" />
        </mxCell>
        <mxCell id="4EZs6NRq4k3DMp0Py4xL-56" value="" style="line;strokeWidth=1;align=left;verticalAlign=middle;spacingTop=-1;spacingLeft=3;spacingRight=3;rotatable=0;labelPosition=right;points=[];portConstraint=eastwest;shadow=0;" parent="4EZs6NRq4k3DMp0Py4xL-54" vertex="1">
          <mxGeometry y="26" width="160" height="8" as="geometry" />
        </mxCell>
        <mxCell id="4EZs6NRq4k3DMp0Py4xL-58" value="GasBill" style="swimlane;fontStyle=1;align=center;verticalAlign=top;childLayout=stackLayout;horizontal=1;startSize=26;horizontalStack=0;resizeParent=1;resizeParentMax=0;resizeLast=0;collapsible=1;marginBottom=0;whiteSpace=wrap;html=1;shadow=0;fillColor=#dae8fc;strokeColor=#6c8ebf;" parent="WIyWlLk6GJQsqaUBKTNV-1" vertex="1">
          <mxGeometry x="660" y="-168" width="160" height="34" as="geometry" />
        </mxCell>
        <mxCell id="4EZs6NRq4k3DMp0Py4xL-60" value="" style="line;strokeWidth=1;align=left;verticalAlign=middle;spacingTop=-1;spacingLeft=3;spacingRight=3;rotatable=0;labelPosition=right;points=[];portConstraint=eastwest;shadow=0;" parent="4EZs6NRq4k3DMp0Py4xL-58" vertex="1">
          <mxGeometry y="26" width="160" height="8" as="geometry" />
        </mxCell>
        <mxCell id="4EZs6NRq4k3DMp0Py4xL-62" value="ElectricityBill" style="swimlane;fontStyle=1;align=center;verticalAlign=top;childLayout=stackLayout;horizontal=1;startSize=26;horizontalStack=0;resizeParent=1;resizeParentMax=0;resizeLast=0;collapsible=1;marginBottom=0;whiteSpace=wrap;html=1;shadow=0;fillColor=#dae8fc;strokeColor=#6c8ebf;" parent="WIyWlLk6GJQsqaUBKTNV-1" vertex="1">
          <mxGeometry x="870" y="-168" width="160" height="34" as="geometry" />
        </mxCell>
        <mxCell id="4EZs6NRq4k3DMp0Py4xL-64" value="" style="line;strokeWidth=1;align=left;verticalAlign=middle;spacingTop=-1;spacingLeft=3;spacingRight=3;rotatable=0;labelPosition=right;points=[];portConstraint=eastwest;shadow=0;" parent="4EZs6NRq4k3DMp0Py4xL-62" vertex="1">
          <mxGeometry y="26" width="160" height="8" as="geometry" />
        </mxCell>
        <mxCell id="4EZs6NRq4k3DMp0Py4xL-66" value="" style="endArrow=block;endSize=16;endFill=0;html=1;rounded=0;entryX=0.5;entryY=1;entryDx=0;entryDy=0;exitX=0.5;exitY=0;exitDx=0;exitDy=0;shadow=0;" parent="WIyWlLk6GJQsqaUBKTNV-1" source="4EZs6NRq4k3DMp0Py4xL-54" target="Y6SLcv1Vtxi3gwNzsoC4-21" edge="1">
          <mxGeometry width="160" relative="1" as="geometry">
            <mxPoint x="640" y="-170" as="sourcePoint" />
            <mxPoint x="760" y="-250" as="targetPoint" />
            <Array as="points">
              <mxPoint x="530" y="-220" />
              <mxPoint x="740" y="-220" />
            </Array>
          </mxGeometry>
        </mxCell>
        <mxCell id="4EZs6NRq4k3DMp0Py4xL-67" value="" style="endArrow=none;html=1;rounded=0;entryX=0.5;entryY=0;entryDx=0;entryDy=0;shadow=0;" parent="WIyWlLk6GJQsqaUBKTNV-1" target="4EZs6NRq4k3DMp0Py4xL-58" edge="1">
          <mxGeometry width="50" height="50" relative="1" as="geometry">
            <mxPoint x="740" y="-220" as="sourcePoint" />
            <mxPoint x="830" y="-250" as="targetPoint" />
          </mxGeometry>
        </mxCell>
        <mxCell id="4EZs6NRq4k3DMp0Py4xL-69" value="" style="endArrow=none;html=1;rounded=0;entryX=0.5;entryY=0;entryDx=0;entryDy=0;shadow=0;" parent="WIyWlLk6GJQsqaUBKTNV-1" target="4EZs6NRq4k3DMp0Py4xL-62" edge="1">
          <mxGeometry width="50" height="50" relative="1" as="geometry">
            <mxPoint x="740" y="-220" as="sourcePoint" />
            <mxPoint x="750" y="-158" as="targetPoint" />
            <Array as="points">
              <mxPoint x="950" y="-220" />
            </Array>
          </mxGeometry>
        </mxCell>
        <mxCell id="4EZs6NRq4k3DMp0Py4xL-70" value="" style="endArrow=open;endSize=12;dashed=1;html=1;rounded=0;entryX=0.5;entryY=0;entryDx=0;entryDy=0;shadow=0;" parent="WIyWlLk6GJQsqaUBKTNV-1" target="Y6SLcv1Vtxi3gwNzsoC4-36" edge="1">
          <mxGeometry width="160" relative="1" as="geometry">
            <mxPoint x="835" y="-320.77" as="sourcePoint" />
            <mxPoint x="995" y="-320.77" as="targetPoint" />
            <Array as="points">
              <mxPoint x="1435" y="-321" />
            </Array>
          </mxGeometry>
        </mxCell>
        <mxCell id="4EZs6NRq4k3DMp0Py4xL-76" value="&lt;p style=&quot;margin:0px;margin-top:4px;text-align:center;&quot;&gt;&lt;i style=&quot;&quot;&gt;&lt;b&gt;BankABI&lt;/b&gt;&lt;/i&gt;&lt;/p&gt;&lt;hr size=&quot;1&quot;&gt;&lt;p style=&quot;margin:0px;margin-left:4px;&quot;&gt;&lt;span style=&quot;background-color: initial;&quot;&gt;- accounts[] : BankAccount&lt;/span&gt;&lt;br&gt;&lt;/p&gt;&lt;p style=&quot;margin:0px;margin-left:4px;&quot;&gt;&lt;span style=&quot;background-color: initial;&quot;&gt;-Name :String&lt;/span&gt;&lt;/p&gt;&lt;p style=&quot;margin:0px;margin-left:4px;&quot;&gt;&lt;span style=&quot;background-color: initial;&quot;&gt;-id : Integer&lt;/span&gt;&lt;/p&gt;&lt;hr size=&quot;1&quot;&gt;&lt;p style=&quot;margin:0px;margin-left:4px;&quot;&gt;&lt;span style=&quot;background-color: initial;&quot;&gt;+ add_account (bank_account : BankAccount) :void&lt;/span&gt;&lt;/p&gt;&lt;p style=&quot;margin:0px;margin-left:4px;&quot;&gt;&lt;span style=&quot;background-color: initial;&quot;&gt;+get_acount (Sring username):BankAcount&lt;/span&gt;&lt;/p&gt;" style="verticalAlign=top;align=left;overflow=fill;fontSize=12;fontFamily=Helvetica;html=1;whiteSpace=wrap;shadow=0;gradientDirection=north;backgroundOutline=0;gradientColor=#99F1FF;" parent="WIyWlLk6GJQsqaUBKTNV-1" vertex="1">
          <mxGeometry x="509" y="460" width="360" height="160" as="geometry" />
        </mxCell>
        <mxCell id="4EZs6NRq4k3DMp0Py4xL-77" value="QNB" style="swimlane;fontStyle=1;align=center;verticalAlign=top;childLayout=stackLayout;horizontal=1;startSize=26;horizontalStack=0;resizeParent=1;resizeParentMax=0;resizeLast=0;collapsible=1;marginBottom=0;whiteSpace=wrap;html=1;shadow=0;fillColor=#dae8fc;strokeColor=#6c8ebf;" parent="WIyWlLk6GJQsqaUBKTNV-1" vertex="1">
          <mxGeometry x="720" y="787" width="160" height="34" as="geometry" />
        </mxCell>
        <mxCell id="4EZs6NRq4k3DMp0Py4xL-79" value="" style="line;strokeWidth=1;align=left;verticalAlign=middle;spacingTop=-1;spacingLeft=3;spacingRight=3;rotatable=0;labelPosition=right;points=[];portConstraint=eastwest;shadow=0;" parent="4EZs6NRq4k3DMp0Py4xL-77" vertex="1">
          <mxGeometry y="26" width="160" height="8" as="geometry" />
        </mxCell>
        <mxCell id="4EZs6NRq4k3DMp0Py4xL-81" value="CIB" style="swimlane;fontStyle=1;align=center;verticalAlign=top;childLayout=stackLayout;horizontal=1;startSize=26;horizontalStack=0;resizeParent=1;resizeParentMax=0;resizeLast=0;collapsible=1;marginBottom=0;whiteSpace=wrap;html=1;shadow=0;fillColor=#dae8fc;strokeColor=#6c8ebf;" parent="WIyWlLk6GJQsqaUBKTNV-1" vertex="1">
          <mxGeometry x="500" y="787" width="160" height="34" as="geometry" />
        </mxCell>
        <mxCell id="4EZs6NRq4k3DMp0Py4xL-83" value="" style="line;strokeWidth=1;align=left;verticalAlign=middle;spacingTop=-1;spacingLeft=3;spacingRight=3;rotatable=0;labelPosition=right;points=[];portConstraint=eastwest;shadow=0;" parent="4EZs6NRq4k3DMp0Py4xL-81" vertex="1">
          <mxGeometry y="26" width="160" height="8" as="geometry" />
        </mxCell>
        <mxCell id="4EZs6NRq4k3DMp0Py4xL-85" value="" style="endArrow=block;endSize=16;endFill=0;html=1;rounded=0;exitX=0.5;exitY=0;exitDx=0;exitDy=0;shadow=0;" parent="WIyWlLk6GJQsqaUBKTNV-1" source="4EZs6NRq4k3DMp0Py4xL-81" target="4EZs6NRq4k3DMp0Py4xL-76" edge="1">
          <mxGeometry width="160" relative="1" as="geometry">
            <mxPoint x="480" y="709" as="sourcePoint" />
            <mxPoint x="685" y="649" as="targetPoint" />
            <Array as="points">
              <mxPoint x="580" y="710" />
              <mxPoint x="689" y="710" />
              <mxPoint x="689" y="679" />
            </Array>
          </mxGeometry>
        </mxCell>
        <mxCell id="4EZs6NRq4k3DMp0Py4xL-86" value="" style="endArrow=none;html=1;rounded=0;exitX=0.5;exitY=0;exitDx=0;exitDy=0;shadow=0;" parent="WIyWlLk6GJQsqaUBKTNV-1" source="4EZs6NRq4k3DMp0Py4xL-77" edge="1">
          <mxGeometry width="50" height="50" relative="1" as="geometry">
            <mxPoint x="730" y="713" as="sourcePoint" />
            <mxPoint x="690" y="710" as="targetPoint" />
            <Array as="points">
              <mxPoint x="800" y="710" />
              <mxPoint x="690" y="710" />
            </Array>
          </mxGeometry>
        </mxCell>
        <mxCell id="Or9qenofxPlAhCNmHcEj-0" value="&lt;p style=&quot;margin:0px;margin-top:4px;text-align:center;&quot;&gt;&lt;b&gt;&lt;i&gt;WalletAPI&lt;/i&gt;&lt;/b&gt;&lt;/p&gt;&lt;hr size=&quot;1&quot;&gt;&lt;p style=&quot;margin:0px;margin-left:4px;&quot;&gt;id : Integer&lt;/p&gt;&lt;p style=&quot;margin:0px;margin-left:4px;&quot;&gt;name : String&lt;/p&gt;&lt;p style=&quot;margin:0px;margin-left:4px;&quot;&gt;list_of_acounts [] : WalletAcount&lt;/p&gt;&lt;hr size=&quot;1&quot;&gt;&lt;p style=&quot;margin:0px;margin-left:4px;&quot;&gt;+ get_name(): String&lt;br&gt;+ get_id(): String&lt;/p&gt;&lt;p style=&quot;margin:0px;margin-left:4px;&quot;&gt;+ get_number() : String&lt;/p&gt;&lt;p style=&quot;margin:0px;margin-left:4px;&quot;&gt;+set_acounts(list_of_accounts): void&lt;/p&gt;&lt;p style=&quot;margin:0px;margin-left:4px;&quot;&gt;+get_acount(String mobile_number)&lt;/p&gt;" style="verticalAlign=top;align=left;overflow=fill;fontSize=12;fontFamily=Helvetica;html=1;whiteSpace=wrap;shadow=0;gradientDirection=north;backgroundOutline=0;gradientColor=#99F1FF;" vertex="1" parent="WIyWlLk6GJQsqaUBKTNV-1">
          <mxGeometry x="-40" y="170" width="210" height="190" as="geometry" />
        </mxCell>
        <mxCell id="Or9qenofxPlAhCNmHcEj-7" value="&lt;i&gt;AcountType&lt;/i&gt;" style="swimlane;fontStyle=1;align=center;verticalAlign=top;childLayout=stackLayout;horizontal=1;startSize=26;horizontalStack=0;resizeParent=1;resizeParentMax=0;resizeLast=0;collapsible=1;marginBottom=0;whiteSpace=wrap;html=1;fillColor=#dae8fc;strokeColor=#6c8ebf;" vertex="1" parent="WIyWlLk6GJQsqaUBKTNV-1">
          <mxGeometry x="1351" y="380" width="230" height="168" as="geometry" />
        </mxCell>
        <mxCell id="Or9qenofxPlAhCNmHcEj-8" value="-user_name:String&amp;nbsp;&lt;br&gt;-passworrd: String&amp;nbsp;&lt;br&gt;-mobile_number :String&lt;br&gt;-balance :String" style="text;strokeColor=#6c8ebf;fillColor=#dae8fc;align=left;verticalAlign=top;spacingLeft=4;spacingRight=4;overflow=hidden;rotatable=0;points=[[0,0.5],[1,0.5]];portConstraint=eastwest;whiteSpace=wrap;html=1;" vertex="1" parent="Or9qenofxPlAhCNmHcEj-7">
          <mxGeometry y="26" width="230" height="74" as="geometry" />
        </mxCell>
        <mxCell id="Or9qenofxPlAhCNmHcEj-10" value="+update_balance (balance :double):void&lt;br&gt;" style="text;strokeColor=#6c8ebf;fillColor=#dae8fc;align=left;verticalAlign=top;spacingLeft=4;spacingRight=4;overflow=hidden;rotatable=0;points=[[0,0.5],[1,0.5]];portConstraint=eastwest;whiteSpace=wrap;html=1;" vertex="1" parent="Or9qenofxPlAhCNmHcEj-7">
          <mxGeometry y="100" width="230" height="60" as="geometry" />
        </mxCell>
        <mxCell id="Or9qenofxPlAhCNmHcEj-9" value="" style="line;strokeWidth=1;fillColor=#dae8fc;align=left;verticalAlign=middle;spacingTop=-1;spacingLeft=3;spacingRight=3;rotatable=0;labelPosition=right;points=[];portConstraint=eastwest;strokeColor=#6c8ebf;" vertex="1" parent="Or9qenofxPlAhCNmHcEj-7">
          <mxGeometry y="160" width="230" height="8" as="geometry" />
        </mxCell>
        <mxCell id="Or9qenofxPlAhCNmHcEj-11" value="BankWalllit" style="swimlane;fontStyle=0;childLayout=stackLayout;horizontal=1;startSize=26;fillColor=#dae8fc;horizontalStack=0;resizeParent=1;resizeParentMax=0;resizeLast=0;collapsible=1;marginBottom=0;whiteSpace=wrap;html=1;strokeColor=#6c8ebf;" vertex="1" parent="WIyWlLk6GJQsqaUBKTNV-1">
          <mxGeometry x="-370" y="450" width="140" height="52" as="geometry" />
        </mxCell>
        <mxCell id="Or9qenofxPlAhCNmHcEj-13" value="" style="text;strokeColor=#6c8ebf;fillColor=#dae8fc;align=left;verticalAlign=top;spacingLeft=4;spacingRight=4;overflow=hidden;rotatable=0;points=[[0,0.5],[1,0.5]];portConstraint=eastwest;whiteSpace=wrap;html=1;" vertex="1" parent="Or9qenofxPlAhCNmHcEj-11">
          <mxGeometry y="26" width="140" height="26" as="geometry" />
        </mxCell>
        <mxCell id="Or9qenofxPlAhCNmHcEj-18" value="" style="endArrow=none;html=1;rounded=0;exitX=0;exitY=0.5;exitDx=0;exitDy=0;shadow=0;entryX=0.999;entryY=0.303;entryDx=0;entryDy=0;entryPerimeter=0;" edge="1" parent="WIyWlLk6GJQsqaUBKTNV-1" source="Y6SLcv1Vtxi3gwNzsoC4-21" target="Y6SLcv1Vtxi3gwNzsoC4-23">
          <mxGeometry width="50" height="50" relative="1" as="geometry">
            <mxPoint x="1395" y="36" as="sourcePoint" />
            <mxPoint x="1510" y="120" as="targetPoint" />
          </mxGeometry>
        </mxCell>
        <mxCell id="Or9qenofxPlAhCNmHcEj-19" value="" style="endArrow=none;html=1;rounded=0;exitX=0.5;exitY=0;exitDx=0;exitDy=0;shadow=0;" edge="1" parent="WIyWlLk6GJQsqaUBKTNV-1" source="Or9qenofxPlAhCNmHcEj-0">
          <mxGeometry width="50" height="50" relative="1" as="geometry">
            <mxPoint x="1365" y="266" as="sourcePoint" />
            <mxPoint x="60" y="-90" as="targetPoint" />
          </mxGeometry>
        </mxCell>
        <mxCell id="Or9qenofxPlAhCNmHcEj-20" value="" style="endArrow=none;html=1;rounded=0;shadow=0;exitX=1;exitY=0.579;exitDx=0;exitDy=0;exitPerimeter=0;" edge="1" parent="WIyWlLk6GJQsqaUBKTNV-1" source="Or9qenofxPlAhCNmHcEj-0">
          <mxGeometry width="50" height="50" relative="1" as="geometry">
            <mxPoint x="221.19999999999982" y="140" as="sourcePoint" />
            <mxPoint x="680" y="460" as="targetPoint" />
            <Array as="points">
              <mxPoint x="310" y="280" />
              <mxPoint x="680" y="280" />
            </Array>
          </mxGeometry>
        </mxCell>
        <mxCell id="Or9qenofxPlAhCNmHcEj-21" value="Manger" style="swimlane;fontStyle=0;childLayout=stackLayout;horizontal=1;startSize=26;fillColor=#dae8fc;horizontalStack=0;resizeParent=1;resizeParentMax=0;resizeLast=0;collapsible=1;marginBottom=0;whiteSpace=wrap;html=1;strokeColor=#6c8ebf;" vertex="1" parent="WIyWlLk6GJQsqaUBKTNV-1">
          <mxGeometry x="1720" y="10.5" width="140" height="100" as="geometry" />
        </mxCell>
        <mxCell id="Or9qenofxPlAhCNmHcEj-22" value="+main():int&lt;br&gt;+operations() : int&lt;br&gt;+startApplication(): void" style="text;strokeColor=#6c8ebf;fillColor=#dae8fc;align=left;verticalAlign=top;spacingLeft=4;spacingRight=4;overflow=hidden;rotatable=0;points=[[0,0.5],[1,0.5]];portConstraint=eastwest;whiteSpace=wrap;html=1;" vertex="1" parent="Or9qenofxPlAhCNmHcEj-21">
          <mxGeometry y="26" width="140" height="74" as="geometry" />
        </mxCell>
        <mxCell id="Or9qenofxPlAhCNmHcEj-25" value="" style="endArrow=none;html=1;rounded=0;exitX=0.009;exitY=0.403;exitDx=0;exitDy=0;shadow=0;exitPerimeter=0;" edge="1" parent="WIyWlLk6GJQsqaUBKTNV-1" source="Or9qenofxPlAhCNmHcEj-22" target="Y6SLcv1Vtxi3gwNzsoC4-36">
          <mxGeometry width="50" height="50" relative="1" as="geometry">
            <mxPoint x="1231" y="14" as="sourcePoint" />
            <mxPoint x="560" y="-160" as="targetPoint" />
          </mxGeometry>
        </mxCell>
        <mxCell id="Or9qenofxPlAhCNmHcEj-27" value="" style="endArrow=none;html=1;rounded=0;exitX=0.5;exitY=0;exitDx=0;exitDy=0;shadow=0;" edge="1" parent="WIyWlLk6GJQsqaUBKTNV-1" source="Or9qenofxPlAhCNmHcEj-11">
          <mxGeometry width="50" height="50" relative="1" as="geometry">
            <mxPoint x="1021" y="34" as="sourcePoint" />
            <mxPoint x="-30" y="400" as="targetPoint" />
            <Array as="points">
              <mxPoint x="-300" y="400" />
            </Array>
          </mxGeometry>
        </mxCell>
        <mxCell id="Or9qenofxPlAhCNmHcEj-28" value="" style="endArrow=none;html=1;rounded=0;shadow=0;entryX=1.018;entryY=0.342;entryDx=0;entryDy=0;entryPerimeter=0;" edge="1" parent="WIyWlLk6GJQsqaUBKTNV-1" source="Y6SLcv1Vtxi3gwNzsoC4-39" target="Or9qenofxPlAhCNmHcEj-0">
          <mxGeometry width="50" height="50" relative="1" as="geometry">
            <mxPoint x="1031" y="44" as="sourcePoint" />
            <mxPoint x="360" y="-130" as="targetPoint" />
            <Array as="points">
              <mxPoint x="1606" y="800" />
              <mxPoint x="1000" y="800" />
              <mxPoint x="1000" y="240" />
            </Array>
          </mxGeometry>
        </mxCell>
        <mxCell id="Or9qenofxPlAhCNmHcEj-29" value="" style="endArrow=none;html=1;rounded=0;entryX=0.873;entryY=1.014;entryDx=0;entryDy=0;exitX=0;exitY=0.381;exitDx=0;exitDy=0;shadow=0;entryPerimeter=0;exitPerimeter=0;" edge="1" parent="WIyWlLk6GJQsqaUBKTNV-1" source="Y6SLcv1Vtxi3gwNzsoC4-34" target="4EZs6NRq4k3DMp0Py4xL-76">
          <mxGeometry width="50" height="50" relative="1" as="geometry">
            <mxPoint x="1041" y="54" as="sourcePoint" />
            <mxPoint x="370" y="-120" as="targetPoint" />
            <Array as="points">
              <mxPoint x="1200" y="674" />
              <mxPoint x="823" y="674" />
            </Array>
          </mxGeometry>
        </mxCell>
        <mxCell id="Or9qenofxPlAhCNmHcEj-30" value="" style="endArrow=none;html=1;rounded=0;shadow=0;entryX=0.412;entryY=0.013;entryDx=0;entryDy=0;entryPerimeter=0;" edge="1" parent="WIyWlLk6GJQsqaUBKTNV-1" source="Y6SLcv1Vtxi3gwNzsoC4-36" target="Or9qenofxPlAhCNmHcEj-7">
          <mxGeometry width="50" height="50" relative="1" as="geometry">
            <mxPoint x="1051" y="64" as="sourcePoint" />
            <mxPoint x="380" y="-110" as="targetPoint" />
            <Array as="points" />
          </mxGeometry>
        </mxCell>
      </root>
    </mxGraphModel>
  </diagram>
</mxfile>
